<svg width="193" height="60" viewBox="0 0 193 60" fill="none" xmlns="http://www.w3.org/2000/svg">
<path opacity="0.5" d="M4.21484 17.9961V41.9964L24.9987 54.0007L45.7826 41.9964L4.21484 17.9961Z" fill="white"/>
<path d="M4.21484 17.9961V41.9964L45.7826 17.9961L24.9987 6L4.21484 17.9961Z" fill="white"/>
<path d="M69.87 39H66.6C65.02 39 63.8 38.58 62.94 37.74C62.08 36.9 61.65 35.69 61.65 34.11V24.6C61.65 23.02 62.08 21.81 62.94 20.97C63.8 20.13 65.02 19.71 66.6 19.71H69.87C71.43 19.71 72.64 20.14 73.5 21C74.38 21.84 74.82 23.04 74.82 24.6V26.01C74.82 26.45 74.6 26.67 74.16 26.67H71.64C71.22 26.67 71.01 26.45 71.01 26.01V24.78C71.01 24.14 70.87 23.69 70.59 23.43C70.33 23.15 69.88 23.01 69.24 23.01H67.2C66.58 23.01 66.13 23.15 65.85 23.43C65.59 23.69 65.46 24.14 65.46 24.78V33.93C65.46 34.57 65.59 35.03 65.85 35.31C66.13 35.57 66.58 35.7 67.2 35.7H69.24C69.88 35.7 70.33 35.57 70.59 35.31C70.87 35.03 71.01 34.57 71.01 33.93V32.7C71.01 32.26 71.22 32.04 71.64 32.04H74.16C74.6 32.04 74.82 32.26 74.82 32.7V34.11C74.82 35.67 74.38 36.88 73.5 37.74C72.64 38.58 71.43 39 69.87 39ZM85.1126 39H82.4426C80.8626 39 79.6426 38.58 78.7826 37.74C77.9226 36.9 77.4926 35.69 77.4926 34.11V28.59C77.4926 27.01 77.9226 25.8 78.7826 24.96C79.6426 24.12 80.8626 23.7 82.4426 23.7H85.1126C86.6726 23.7 87.8826 24.13 88.7426 24.99C89.6226 25.83 90.0626 27.03 90.0626 28.59V34.11C90.0626 35.67 89.6226 36.88 88.7426 37.74C87.8826 38.58 86.6726 39 85.1126 39ZM83.0126 35.73H84.5426C85.1826 35.73 85.6326 35.6 85.8926 35.34C86.1726 35.08 86.3126 34.63 86.3126 33.99V28.71C86.3126 28.07 86.1726 27.62 85.8926 27.36C85.6326 27.1 85.1826 26.97 84.5426 26.97H83.0126C82.3726 26.97 81.9226 27.1 81.6626 27.36C81.4026 27.62 81.2726 28.07 81.2726 28.71V33.99C81.2726 34.63 81.4026 35.08 81.6626 35.34C81.9226 35.6 82.3726 35.73 83.0126 35.73ZM96.2363 39H93.6863C93.2663 39 93.0563 38.79 93.0563 38.37V24.33C93.0563 23.91 93.2663 23.7 93.6863 23.7H96.2363C96.6563 23.7 96.8663 23.91 96.8663 24.33V25.32H96.9863C97.4263 24.24 98.4063 23.7 99.9263 23.7H100.886C104.026 23.7 105.596 25.33 105.596 28.59V38.37C105.596 38.79 105.376 39 104.936 39H102.416C101.996 39 101.786 38.79 101.786 38.37V28.77C101.786 28.13 101.646 27.68 101.366 27.42C101.106 27.14 100.656 27 100.016 27H98.9363C97.5563 27 96.8663 27.76 96.8663 29.28V38.37C96.8663 38.79 96.6563 39 96.2363 39ZM114.549 39H108.849C108.449 39 108.249 38.79 108.249 38.37V36.45C108.249 36.23 108.289 36.08 108.369 36C108.449 35.9 108.609 35.85 108.849 35.85H113.859C114.839 35.85 115.329 35.55 115.329 34.95V34.8C115.329 34.32 114.919 33.86 114.099 33.42L111.129 31.77C110.109 31.25 109.359 30.69 108.879 30.09C108.399 29.49 108.159 28.72 108.159 27.78C108.159 26.38 108.529 25.35 109.269 24.69C110.009 24.03 111.169 23.7 112.749 23.7H117.759C118.159 23.7 118.359 23.91 118.359 24.33V26.28C118.359 26.5 118.319 26.66 118.239 26.76C118.159 26.84 117.999 26.88 117.759 26.88H113.589C112.609 26.88 112.119 27.13 112.119 27.63V27.78C112.119 28.22 112.549 28.67 113.409 29.13L116.439 30.93C117.479 31.49 118.209 32.07 118.629 32.67C119.049 33.25 119.259 34.02 119.259 34.98C119.259 37.66 117.689 39 114.549 39ZM128.184 39H125.664C125.224 39 125.004 38.79 125.004 38.37V23.34C125.004 23.12 124.894 23.01 124.674 23.01H121.254C120.834 23.01 120.624 22.8 120.624 22.38V20.34C120.624 19.92 120.834 19.71 121.254 19.71H132.594C133.014 19.71 133.224 19.92 133.224 20.34V22.38C133.224 22.8 133.014 23.01 132.594 23.01H129.174C128.934 23.01 128.814 23.12 128.814 23.34V38.37C128.814 38.79 128.604 39 128.184 39ZM135.364 21.12V18.51C135.364 18.11 135.564 17.91 135.964 17.91H138.574C138.974 17.91 139.174 18.1 139.174 18.48V21.12C139.174 21.52 138.974 21.72 138.574 21.72H135.964C135.564 21.72 135.364 21.52 135.364 21.12ZM135.364 38.37V24.33C135.364 23.91 135.564 23.7 135.964 23.7H138.544C138.964 23.7 139.174 23.91 139.174 24.33V38.37C139.174 38.63 139.124 38.8 139.024 38.88C138.944 38.96 138.794 39 138.574 39H135.994C135.574 39 135.364 38.79 135.364 38.37ZM145.807 39H143.257C142.837 39 142.627 38.79 142.627 38.37V24.33C142.627 23.91 142.837 23.7 143.257 23.7H145.807C146.227 23.7 146.437 23.91 146.437 24.33V25.32H146.557C146.797 24.84 147.197 24.45 147.757 24.15C148.337 23.85 148.997 23.7 149.737 23.7H150.577C152.317 23.7 153.567 24.34 154.327 25.62C155.007 24.34 156.177 23.7 157.837 23.7H158.707C160.247 23.7 161.407 24.12 162.187 24.96C162.987 25.8 163.387 27.01 163.387 28.59V38.37C163.387 38.79 163.177 39 162.757 39H160.207C159.787 39 159.577 38.79 159.577 38.37V28.77C159.577 28.13 159.447 27.68 159.187 27.42C158.927 27.14 158.477 27 157.837 27H157.087C155.707 27 155.017 27.77 155.017 29.31V38.37C155.017 38.79 154.797 39 154.357 39H151.837C151.417 39 151.207 38.79 151.207 38.37V28.77C151.207 28.13 151.067 27.68 150.787 27.42C150.527 27.14 150.077 27 149.437 27H148.507C147.127 27 146.437 27.76 146.437 29.28V38.37C146.437 38.79 146.227 39 145.807 39ZM177.842 39H171.212C169.632 39 168.412 38.58 167.552 37.74C166.692 36.9 166.262 35.69 166.262 34.11V28.59C166.262 27.01 166.692 25.8 167.552 24.96C168.412 24.12 169.632 23.7 171.212 23.7H173.582C175.162 23.7 176.382 24.12 177.242 24.96C178.102 25.8 178.532 27.01 178.532 28.59V32.4C178.532 32.82 178.322 33.03 177.902 33.03H170.372C170.132 33.03 170.012 33.14 170.012 33.36V34.02C170.012 34.64 170.142 35.09 170.402 35.37C170.682 35.63 171.142 35.76 171.782 35.76H177.842C178.262 35.76 178.472 35.98 178.472 36.42V38.4C178.472 38.62 178.422 38.78 178.322 38.88C178.242 38.96 178.082 39 177.842 39ZM170.372 30.48H174.452C174.672 30.48 174.782 30.37 174.782 30.15V28.71C174.782 28.07 174.652 27.62 174.392 27.36C174.132 27.1 173.682 26.97 173.042 26.97H171.782C171.142 26.97 170.692 27.1 170.432 27.36C170.172 27.62 170.042 28.07 170.042 28.71V30.15C170.042 30.37 170.152 30.48 170.372 30.48ZM187.176 39H181.476C181.076 39 180.876 38.79 180.876 38.37V36.45C180.876 36.23 180.916 36.08 180.996 36C181.076 35.9 181.236 35.85 181.476 35.85H186.486C187.466 35.85 187.956 35.55 187.956 34.95V34.8C187.956 34.32 187.546 33.86 186.726 33.42L183.756 31.77C182.736 31.25 181.986 30.69 181.506 30.09C181.026 29.49 180.786 28.72 180.786 27.78C180.786 26.38 181.156 25.35 181.896 24.69C182.636 24.03 183.796 23.7 185.376 23.7H190.386C190.786 23.7 190.986 23.91 190.986 24.33V26.28C190.986 26.5 190.946 26.66 190.866 26.76C190.786 26.84 190.626 26.88 190.386 26.88H186.216C185.236 26.88 184.746 27.13 184.746 27.63V27.78C184.746 28.22 185.176 28.67 186.036 29.13L189.066 30.93C190.106 31.49 190.836 32.07 191.256 32.67C191.676 33.25 191.886 34.02 191.886 34.98C191.886 37.66 190.316 39 187.176 39Z" fill="white"/>
</svg>
